<?xml version="1.0" encoding="iso-8859-1"?>
<!-- Generator: Adobe Illustrator 19.0.0, SVG Export Plug-In . SVG Version: 6.00 Build 0)  -->
<svg version="1.1" id="Layer_1" xmlns="http://www.w3.org/2000/svg" xmlns:xlink="http://www.w3.org/1999/xlink" x="0px" y="0px"
	 viewBox="0 0 511.904 511.904" style="enable-background:new 0 0 511.904 511.904;" xml:space="preserve">
<path style="fill:#CED6E0;" d="M308.495,0L308.495,0L178.361,358.4l33.067,11.733l28.8-78.933l28.8,1.067
	c7.467,0,14.933-5.333,17.067-12.8l51.2-226.133C342.628,30.933,329.828,7.467,308.495,0z"/>
<path style="fill:#F3705A;" d="M186.895,308.267c-4.267,8.533-10.667,16-18.133,22.4c-12.8,11.733-30.933,16-49.067,12.8
	c-39.467-5.333-78.933,18.133-90.667,57.6c-12.8,41.6,8.533,87.467,48,103.467c44.8,18.133,94.933-4.267,110.933-49.067l46.933-128
	c1.067-4.267-1.067-9.6-5.333-10.667l-33.067-11.733C193.295,302.933,189.028,305.067,186.895,308.267z M94.095,470.4
	c-23.467-8.533-35.2-34.133-26.667-58.667s34.133-35.2,58.667-26.667c23.467,8.533,35.2,34.133,26.667,58.667
	C144.228,468.267,117.561,478.933,94.095,470.4z"/>
<path style="fill:#E8EAE9;" d="M175.161,53.333l51.2,227.2c2.133,7.467,8.533,12.8,17.067,12.8l28.8-1.067l28.8,78.933
	l33.067-11.733L203.961,0l0,0C182.628,7.467,169.828,30.933,175.161,53.333z"/>
<path style="fill:#F3705A;" d="M281.828,316.8c-4.267,1.067-6.4,6.4-5.333,10.667l46.933,129.067
	c16,44.8,66.133,67.2,110.933,49.067c40.533-16,61.867-61.867,48-103.467c-12.8-39.467-52.267-62.933-90.667-57.6
	c-17.067,2.133-35.2-1.067-49.067-12.8c-7.467-6.4-12.8-13.867-18.133-22.4c-2.133-3.2-6.4-5.333-10.667-4.267L281.828,316.8z
	 M360.761,443.733c-8.533-23.467,3.2-49.067,26.667-58.667c23.467-8.533,49.067,3.2,58.667,26.667
	c9.6,23.467-3.2,49.067-26.667,58.667C394.895,478.933,369.294,467.2,360.761,443.733z"/>
<circle style="fill:#ADB3BA;" cx="256.228" cy="252.8" r="13.867"/>
<g>
</g>
<g>
</g>
<g>
</g>
<g>
</g>
<g>
</g>
<g>
</g>
<g>
</g>
<g>
</g>
<g>
</g>
<g>
</g>
<g>
</g>
<g>
</g>
<g>
</g>
<g>
</g>
<g>
</g>
</svg>
